<svg viewBox="0 0 18 16" fill="none" xmlns="http://www.w3.org/2000/svg">
<path d="M17.2611 2.9128H3.18594L2.97723 0.6528C2.96074 0.474408 2.87597 0.308466 2.73963 0.187646C2.60329 0.0668266 2.42524 -0.000115502 2.24055 1.49604e-07H0.739151C0.543116 1.49604e-07 0.35511 0.0755199 0.216492 0.209946C0.0778746 0.344372 0 0.526693 0 0.7168C0 0.906907 0.0778746 1.08923 0.216492 1.22365C0.35511 1.35808 0.543116 1.4336 0.739151 1.4336H1.5641L2.41461 10.62C2.47483 11.2824 2.84358 12.0008 3.47962 12.4888C2.33377 13.908 3.38062 16 5.245 16C6.79177 16 7.88235 14.504 7.35191 13.0864H11.3983C10.8686 14.5024 11.9567 16 13.506 16C14.1002 15.9994 14.67 15.7702 15.0902 15.3627C15.5104 14.9552 15.7467 14.4027 15.7474 13.8264C15.7467 13.2501 15.5104 12.6976 15.0902 12.2901C14.67 11.8826 14.1002 11.6534 13.506 11.6528H5.24995C4.68816 11.6528 4.19897 11.3248 3.98778 10.8456L15.8018 10.172C15.959 10.1631 16.1091 10.1058 16.2304 10.0084C16.3516 9.91093 16.4376 9.77852 16.4758 9.6304L17.978 3.804C18.0052 3.69825 18.0072 3.58788 17.9838 3.48127C17.9605 3.37466 17.9124 3.27461 17.8432 3.18871C17.774 3.10281 17.6856 3.03333 17.5846 2.98552C17.4836 2.93771 17.3735 2.91284 17.2611 2.9128ZM5.24417 14.5664C5.04793 14.5575 4.86275 14.4757 4.7271 14.3379C4.59145 14.2001 4.51577 14.0169 4.51577 13.8264C4.51577 13.6359 4.59145 13.4527 4.7271 13.3149C4.86275 13.1771 5.04793 13.0953 5.24417 13.0864C5.44042 13.0953 5.6256 13.1771 5.76125 13.3149C5.89689 13.4527 5.97258 13.6359 5.97258 13.8264C5.97258 14.0169 5.89689 14.2001 5.76125 14.3379C5.6256 14.4757 5.44042 14.5575 5.24417 14.5664ZM13.506 14.5664C13.3098 14.5575 13.1246 14.4757 12.9889 14.3379C12.8533 14.2001 12.7776 14.0169 12.7776 13.8264C12.7776 13.6359 12.8533 13.4527 12.9889 13.3149C13.1246 13.1771 13.3098 13.0953 13.506 13.0864C13.7022 13.0953 13.8874 13.1771 14.0231 13.3149C14.1587 13.4527 14.2344 13.6359 14.2344 13.8264C14.2344 14.0169 14.1587 14.2001 14.0231 14.3379C13.8874 14.4757 13.7022 14.5575 13.506 14.5664ZM15.1732 8.772L3.78897 9.42L3.31875 4.3472H16.3141L15.1732 8.772Z" fill="#69707D"/>
</svg>
