<svg width="22" height="20" viewBox="0 0 22 20" fill="none" xmlns="http://www.w3.org/2000/svg">
<path d="M20.926 3.641H3.86395L3.61095 0.816C3.59096 0.59301 3.48822 0.385582 3.32294 0.234558C3.15767 0.0835332 2.94184 -0.000144378 2.71795 1.87005e-07H0.897953C0.660319 1.87005e-07 0.432418 0.0943999 0.264385 0.262433C0.0963529 0.430465 0.00195313 0.658366 0.00195312 0.896C0.00195313 1.13363 0.0963529 1.36154 0.264385 1.52957C0.432418 1.6976 0.660319 1.792 0.897953 1.792H1.89795L2.92895 13.275C3.00195 14.103 3.44895 15.001 4.21995 15.611C2.83095 17.385 4.09995 20 6.35995 20C8.23495 20 9.55695 18.13 8.91395 16.358H13.819C13.177 18.128 14.496 20 16.374 20C17.0943 19.9992 17.7849 19.7127 18.2943 19.2033C18.8036 18.694 19.0902 18.0034 19.091 17.283C19.0902 16.5627 18.8036 15.872 18.2943 15.3627C17.7849 14.8533 17.0943 14.5668 16.374 14.566H6.36595C5.68495 14.566 5.09195 14.156 4.83595 13.557L19.157 12.715C19.3475 12.7039 19.5295 12.6322 19.6764 12.5104C19.8234 12.3887 19.9276 12.2231 19.974 12.038L21.795 4.755C21.8279 4.62281 21.8303 4.48485 21.802 4.35159C21.7737 4.21833 21.7154 4.09326 21.6316 3.98589C21.5477 3.87852 21.4405 3.79166 21.3181 3.7319C21.1956 3.67214 21.0622 3.64105 20.926 3.641ZM6.35895 18.208C6.12107 18.1969 5.89659 18.0946 5.73216 17.9224C5.56772 17.7501 5.47598 17.5211 5.47598 17.283C5.47598 17.0449 5.56772 16.8159 5.73216 16.6436C5.89659 16.4714 6.12107 16.3691 6.35895 16.358C6.59684 16.3691 6.82132 16.4714 6.98575 16.6436C7.15018 16.8159 7.24193 17.0449 7.24193 17.283C7.24193 17.5211 7.15018 17.7501 6.98575 17.9224C6.82132 18.0946 6.59684 18.1969 6.35895 18.208ZM16.374 18.208C16.1361 18.1969 15.9116 18.0946 15.7472 17.9224C15.5827 17.7501 15.491 17.5211 15.491 17.283C15.491 17.0449 15.5827 16.8159 15.7472 16.6436C15.9116 16.4714 16.1361 16.3691 16.374 16.358C16.6118 16.3691 16.8363 16.4714 17.0007 16.6436C17.1652 16.8159 17.2569 17.0449 17.2569 17.283C17.2569 17.5211 17.1652 17.7501 17.0007 17.9224C16.8363 18.0946 16.6118 18.1969 16.374 18.208ZM18.395 10.965L4.59495 11.775L4.02495 5.434H19.778L18.395 10.964V10.965Z" fill="#69707D"/>
</svg>
